{"title":"J. Cole Ft. Missy Elliott - Nobody's Perfect [Explicit] 1080p [S","uid":8990980,"size":82818082,"categoryP":"video","categoryS":"music_videos","magnet":"?xt=urn:btih:83231063ab48527d7a846b2ef4f728d0e4c6f513&amp;dn=J.+Cole+Ft.+Missy+Elliott+-+Nobody%27s+Perfect+%5BExplicit%5D+1080p+%5BS&amp;tr=udp%3A%2F%2Ftracker.openbittorrent.com%3A80&amp;tr=udp%3A%2F%2Fopen.demonii.com%3A1337&amp;tr=udp%3A%2F%2Ftracker.coppersurfer.tk%3A6969&amp;tr=udp%3A%2F%2Fexodus.desync.com%3A6969","seeders":4,"leechers":4,"uploader":"Sbyky","files":1,"time":1380779236,"description":"[IMG]http://cdn.piczend.com/images/nI8aqjjy/1380728769_nobodysperfect.jpg[/IMG]\n\nGeneral\nComplete name                            : J. Cole Ft. Missy Elliott - Nobody's Perfect [Explicit] 1080p [Sbyky].mp4\nFormat                                   : MPEG-4\nFormat profile                           : Base Media / Version 2\nCodec ID                                 : mp42\nFile size                                : 79.0 MiB\nDuration                                 : 3mn 39s\nOverall bit rate mode                    : Variable\nOverall bit rate                         : 3 014 Kbps\nEncoded date                             : UTC 2013-04-17 02:05:51\nTagged date                              : UTC 2013-04-17 02:05:51\n\nVideo\nID                                       : 1\nFormat                                   : AVC\nFormat/Info                              : Advanced Video Codec\nFormat profile                           : &lt;a class=&quot;__cf_email__&quot; href=&quot;/cdn-cgi/l/email-protection&quot; data-cfemail=&quot;2d65444a456d6119031d&quot;&gt;[email&amp;#160;protected]&lt;/a&gt;&lt;script cf-hash='f9e31' type=&quot;text/javascript&quot;&gt;\n/* &lt;![CDATA[ */!function(){try{var t=&quot;currentScript&quot;in document?document.currentScript:function(){for(var t=document.getElementsByTagName(&quot;script&quot;),e=t.length;e--;)if(t[e].getAttribute(&quot;cf-hash&quot;))return t[e]}();if(t&amp;&amp;t.previousSibling){var e,r,n,i,c=t.previousSibling,a=c.getAttribute(&quot;data-cfemail&quot;);if(a){for(e=&quot;&quot;,r=parseInt(a.substr(0,2),16),n=2;a.length-n;n+=2)i=parseInt(a.substr(n,2),16)^r,e+=String.fromCharCode(i);e=document.createTextNode(e),c.parentNode.replaceChild(e,c)}}}catch(u){}}();/* ]]&gt; */&lt;/script&gt;\nFormat settings, CABAC                   : Yes\nFormat settings, ReFrames                : 1 frame\nCodec ID                                 : avc1\nCodec ID/Info                            : Advanced Video Coding\nDuration                                 : 3mn 39s\nBit rate                                 : 2 819 Kbps\nMaximum bit rate                         : 5 607 Kbps\nWidth                                    : 1 920 pixels\nHeight                                   : 1 080 pixels\nDisplay aspect ratio                     : 16:9\nFrame rate mode                          : Constant\nFrame rate                               : 23.976 fps\nColor space                              : YUV\nChroma subsampling                       : 4:2:0\nBit depth                                : 8 bits\nScan type                                : Progressive\nBits/(Pixel*Frame)                       : 0.057\nStream size                              : 73.9 MiB (94%)\nTagged date                              : UTC 2013-04-17 02:05:58\n\nAudio\nID                                       : 2\nFormat                                   : AAC\nFormat/Info                              : Advanced Audio Codec\nFormat profile                           : LC\nCodec ID                                 : 40\nDuration                                 : 3mn 39s\nBit rate mode                            : Variable\nBit rate                                 : 192 Kbps\nMaximum bit rate                         : 201 Kbps\nChannel(s)                               : 2 channels\nChannel positions                        : Front: L R\nSampling rate                            : 44.1 KHz\nCompression mode                         : Lossy\nStream size                              : 5.03 MiB (6%)\nTitle                                    : IsoMedia File Produced by Google, 5-11-2011\nEncoded date                             : UTC 2013-04-17 02:05:56\nTagged date                              : UTC 2013-04-17 02:05:58\n\nShared By Sbyky\n[IMG]http://cdn.piczend.com/images/X3Ag13N3/1379453786_saythanks.gif[/IMG]\n[IMG]http://cdn.piczend.com/images/gGqhX2S8/1379453780_keepseeding.gif[/IMG]","torrent":{"xt":"urn:btih:83231063ab48527d7a846b2ef4f728d0e4c6f513","amp;dn":"J.+Cole+Ft.+Missy+Elliott+-+Nobody%27s+Perfect+%5BExplicit%5D+1080p+%5BS","amp;tr":["udp%3A%2F%2Ftracker.openbittorrent.com%3A80","udp%3A%2F%2Fopen.demonii.com%3A1337","udp%3A%2F%2Ftracker.coppersurfer.tk%3A6969","udp%3A%2F%2Fexodus.desync.com%3A6969"],"infoHash":"83231063ab48527d7a846b2ef4f728d0e4c6f513","infoHashBuffer":{"type":"Buffer","data":[131,35,16,99,171,72,82,125,122,132,107,46,244,247,40,208,228,198,245,19]},"announce":[],"urlList":[]}}